<?xml version="1.0" encoding="UTF-8" standalone="no"?><!-- Generator: Gravit.io --><svg xmlns="http://www.w3.org/2000/svg" xmlns:xlink="http://www.w3.org/1999/xlink" style="isolation:isolate" viewBox="0 0 613.1 69" width="613.1pt" height="69pt"><defs><clipPath id="_clipPath_XuEdiBAOHehYkQXmDVA6QfjtLQTZtrop"><rect width="613.1" height="69"/></clipPath></defs><g clip-path="url(#_clipPath_XuEdiBAOHehYkQXmDVA6QfjtLQTZtrop)"><g><g><path d=" M 0 48.68 L 0 20.365 C 0 9.309 9.019 0 20.365 0 L 28.123 0 C 39.151 0 47.566 8.709 48.416 18.7 C 48.493 19.597 47.769 20.365 46.869 20.365 L 36.304 20.365 C 35.572 20.365 34.932 19.853 34.794 19.135 C 34.198 16.014 31.389 13.576 28.123 13.576 L 20.365 13.576 C 16.631 13.576 13.577 16.631 13.577 20.365 L 13.577 48.68 C 13.577 52.413 16.631 55.468 20.365 55.468 L 28.123 55.468 C 31.389 55.468 34.198 53.03 34.794 49.91 C 34.932 49.191 35.572 48.68 36.304 48.68 L 46.87 48.68 C 47.771 48.68 48.493 49.449 48.418 50.346 C 47.567 60.654 38.893 69.043 28.123 69.043 L 20.365 69.043 C 8.729 69.043 0 59.347 0 48.68 Z " fill="rgb(16,16,16)"/><path d=" M 88.439 31.418 C 99.881 31.418 98.621 13.963 88.924 13.963 L 74.668 13.963 L 74.668 31.418 L 88.439 31.418 Z  M 61.092 1.937 C 61.092 1.081 61.786 0.387 62.643 0.387 L 88.924 0.387 C 118.887 0.387 117.045 41.31 96.39 44.122 L 111.476 65.834 C 112.189 66.862 111.453 68.268 110.202 68.268 L 98.301 68.268 C 97.774 68.268 97.284 68.001 96.999 67.559 L 82.425 44.995 L 74.668 44.995 L 74.668 66.718 C 74.668 67.574 73.975 68.268 73.119 68.268 L 62.643 68.268 C 61.786 68.268 61.092 67.574 61.092 66.718 L 61.092 1.937 Z " fill="rgb(16,16,16)"/><path d=" M 126.64 0.387 L 168.053 0.387 C 168.909 0.387 169.603 1.081 169.603 1.936 L 169.603 12.414 C 169.603 13.269 168.909 13.963 168.053 13.963 L 138.668 13.963 L 138.668 27.54 L 159.131 27.54 C 159.987 27.54 160.681 28.234 160.681 29.089 L 160.681 39.565 C 160.681 40.421 159.987 41.115 159.131 41.115 L 138.668 41.115 L 138.668 54.691 L 168.053 54.691 C 168.909 54.691 169.603 55.385 169.603 56.241 L 169.603 66.718 C 169.603 67.574 168.909 68.268 168.053 68.268 L 126.547 68.268 C 125.69 68.268 124.996 67.573 124.997 66.716 L 125.09 1.934 C 125.092 1.079 125.785 0.387 126.64 0.387 Z " fill="rgb(16,16,16)"/><path d=" M 253.383 13.964 L 238.155 13.964 C 237.3 13.964 236.606 13.27 236.606 12.415 L 236.606 1.937 C 236.606 1.082 237.3 0.388 238.155 0.388 L 281.992 0.388 C 282.848 0.388 283.541 1.082 283.541 1.937 L 283.541 12.415 C 283.541 13.27 282.848 13.964 281.992 13.964 L 266.765 13.964 L 266.765 66.719 C 266.765 67.575 266.071 68.269 265.215 68.269 L 254.932 68.269 C 254.076 68.269 253.383 67.575 253.383 66.719 L 253.383 13.964 Z " fill="rgb(16,16,16)"/><path d=" M 299.15 0.387 L 309.143 0.387 C 309.999 0.387 310.692 1.081 310.692 1.936 L 310.692 66.718 C 310.692 67.574 309.999 68.268 309.143 68.268 L 299.15 68.268 C 298.295 68.268 297.601 67.574 297.601 66.718 L 297.601 1.936 C 297.601 1.081 298.295 0.387 299.15 0.387 Z " fill="rgb(16,16,16)"/><path d=" M 325.916 0.387 L 336.904 0.387 C 337.579 0.387 338.176 0.824 338.381 1.467 L 350.643 40.049 L 362.906 1.467 C 363.111 0.824 363.708 0.387 364.383 0.387 L 375.373 0.387 C 376.425 0.387 377.171 1.413 376.847 2.414 L 355.839 67.196 C 355.632 67.835 355.037 68.268 354.365 68.268 L 347.016 68.268 C 346.345 68.268 345.75 67.836 345.542 67.198 L 324.443 2.416 C 324.117 1.415 324.863 0.387 325.916 0.387 Z " fill="rgb(16,16,16)"/><path d=" M 233.582 68.268 L 222.595 68.268 C 221.919 68.268 221.322 67.831 221.118 67.187 L 208.855 28.605 L 196.592 67.187 C 196.388 67.831 195.79 68.268 195.115 68.268 L 184.126 68.268 C 183.073 68.268 182.327 67.241 182.652 66.24 L 203.659 1.459 C 203.866 0.82 204.461 0.387 205.133 0.387 L 212.482 0.387 C 213.153 0.387 213.748 0.819 213.956 1.457 L 235.056 66.238 C 235.382 67.24 234.635 68.268 233.582 68.268 Z " fill="rgb(16,16,16)"/><path d=" M 389.717 0.387 L 431.131 0.387 C 431.986 0.387 432.68 1.081 432.68 1.936 L 432.68 12.414 C 432.68 13.269 431.986 13.963 431.131 13.963 L 401.745 13.963 L 401.745 27.54 L 422.209 27.54 C 423.065 27.54 423.759 28.234 423.759 29.089 L 423.759 39.565 C 423.759 40.421 423.065 41.115 422.209 41.115 L 401.745 41.115 L 401.745 54.691 L 431.131 54.691 C 431.986 54.691 432.68 55.385 432.68 56.241 L 432.68 66.718 C 432.68 67.574 431.986 68.268 431.131 68.268 L 389.624 68.268 C 388.768 68.268 388.073 67.573 388.075 66.716 L 388.168 1.934 C 388.169 1.079 388.862 0.387 389.717 0.387 Z " fill="rgb(16,16,16)"/><path d=" M 488.006 0.387 L 499.392 0.387 C 500.443 0.387 501.189 1.41 500.867 2.41 L 480.169 66.83 C 479.963 67.47 479.367 67.905 478.693 67.905 L 467.308 67.905 C 466.257 67.905 465.511 66.882 465.832 65.882 L 486.531 1.463 C 486.737 0.822 487.333 0.387 488.006 0.387 Z " fill="rgb(0,221,179)"/><path d=" M 508.023 48.68 L 508.023 20.365 C 508.023 9.309 517.043 0 528.388 0 L 536.146 0 C 547.171 0 555.587 8.707 556.44 18.696 C 556.517 19.595 555.792 20.365 554.889 20.365 L 544.329 20.365 C 543.597 20.365 542.955 19.852 542.816 19.133 C 542.22 16.013 539.412 13.576 536.146 13.576 L 528.388 13.576 C 524.655 13.576 521.6 16.631 521.6 20.365 L 521.6 48.68 C 521.6 52.413 524.655 55.468 528.388 55.468 L 536.146 55.468 C 539.412 55.468 542.22 53.031 542.816 49.912 C 542.955 49.192 543.597 48.68 544.329 48.68 L 554.891 48.68 C 555.794 48.68 556.517 49.45 556.441 50.349 C 555.588 60.655 546.915 69.043 536.146 69.043 L 528.388 69.043 C 516.751 69.043 508.023 59.347 508.023 48.68 Z " fill="rgb(0,221,179)"/><path d=" M 582.983 13.964 L 567.756 13.964 C 566.9 13.964 566.206 13.27 566.206 12.415 L 566.206 1.937 C 566.206 1.082 566.9 0.388 567.756 0.388 L 611.592 0.388 C 612.448 0.388 613.142 1.082 613.142 1.937 L 613.142 12.415 C 613.142 13.27 612.448 13.964 611.592 13.964 L 596.365 13.964 L 596.365 66.719 C 596.365 67.575 595.671 68.269 594.816 68.269 L 584.532 68.269 C 583.677 68.269 582.983 67.575 582.983 66.719 L 582.983 13.964 Z " fill="rgb(0,221,179)"/></g></g></g></svg>