<?xml version="1.0" encoding="UTF-8"?> <svg width="37" height="25" viewBox="0 0 37 25" fill="none" xmlns="http://www.w3.org/2000/svg">
<path d="M37 16.6628C36.9963 14.5791 36.2234 12.5697 34.8287 11.0179C33.434 9.46617 31.5152 8.48069 29.4383 8.24954C28.7645 5.8745 27.3317 3.78364 25.3575 2.29467C23.3832 0.805696 20.9754 0 18.5 0C16.0246 0 13.6168 0.805696 11.6425 2.29467C9.66829 3.78364 8.23545 5.8745 7.56174 8.24954C5.48484 8.48069 3.56598 9.46617 2.17128 11.0179C0.776576 12.5697 0.00366084 14.5791 0 16.6628C0.0282618 18.773 0.841687 20.7975 2.28245 22.3434C3.97632 24.0951 6.43849 24.991 9.60158 24.991C12.6353 24.9911 15.6458 24.4635 18.4978 23.432C21.3494 24.4657 24.3597 24.9963 27.3939 25C30.539 25 33.0192 24.104 34.7175 22.3748C36.1562 20.8311 36.9695 18.8102 37 16.7032V16.6628ZM34.6816 16.6942C34.6447 18.2046 34.0587 19.6502 33.0327 20.762C31.7881 22.0298 29.8876 22.6704 27.3939 22.6704C24.0222 22.6666 20.6898 21.9489 17.6171 20.5649C16.3487 20.0096 15.1436 19.3202 14.0227 18.5086C13.9918 18.485 13.9671 18.4543 13.9508 18.419C13.9441 18.388 13.9441 18.3559 13.9508 18.3249V13.4955C13.9509 13.453 13.9627 13.4113 13.9849 13.375C14.0071 13.3387 14.0388 13.3091 14.0766 13.2895L18.4079 11.0495C18.4411 11.0318 18.4781 11.0226 18.5157 11.0226C18.5533 11.0226 18.5904 11.0318 18.6236 11.0495L22.9548 13.2895C22.9933 13.3083 23.0256 13.3377 23.0479 13.3742C23.0702 13.4107 23.0816 13.4528 23.0806 13.4955V18.3204C23.0797 18.3778 23.0591 18.4332 23.0222 18.4772C22.3552 18.9872 21.644 19.4369 20.897 19.8212C21.9533 20.1398 23.0315 20.3808 24.123 20.5425C24.3881 20.3588 24.5274 20.2423 24.5409 20.2334C24.8058 19.9919 25.0179 19.6987 25.164 19.3718C25.3101 19.045 25.387 18.6917 25.39 18.3339V13.4955C25.3919 13.0271 25.2636 12.5673 25.0193 12.1672C24.775 11.7671 24.4243 11.4422 24.0062 11.2287L19.6749 9.01561C19.3144 8.83016 18.9146 8.7334 18.509 8.7334C18.1033 8.7334 17.7036 8.83016 17.343 9.01561L12.9983 11.2287C12.579 11.4412 12.2271 11.7657 11.982 12.166C11.7368 12.5662 11.608 13.0265 11.61 13.4955V18.3204C11.613 18.6782 11.6899 19.0316 11.836 19.3584C11.9821 19.6852 12.1942 19.9785 12.4591 20.2199H12.4861C13.3522 20.8845 14.2771 21.4693 15.2493 21.9671C13.401 22.4197 11.5048 22.6483 9.60158 22.648C7.10346 22.648 5.2074 22.0074 3.96284 20.7396C2.9349 19.6294 2.34997 18.1825 2.31839 16.6718V16.636C2.32314 15.0077 2.97427 13.4475 4.12943 12.2966C5.28458 11.1456 6.84978 10.4975 8.48281 10.494H9.43534L9.62853 9.58008C10.0266 7.52519 11.1298 5.67261 12.7487 4.34043C14.3675 3.00826 16.401 2.27961 18.5 2.27961C20.599 2.27961 22.6325 3.00826 24.2513 4.34043C25.8702 5.67261 26.9734 7.52519 27.3715 9.58008L27.5557 10.5119H28.4992C30.135 10.5143 31.7032 11.1629 32.8603 12.3158C34.0174 13.4687 34.6691 15.0318 34.6726 16.6628V16.6942H34.6816Z" fill="#AAA6A0"/>
</svg>
